<svg version="1.1" id="Layer_1" xmlns="http://www.w3.org/2000/svg" xmlns:xlink="http://www.w3.org/1999/xlink" x="0px" y="0px" viewBox="0 0 102.7 152.2" style="enable-background:new 0 0 102.7 152.2;" xml:space="preserve">
 <style type="text/css">
  .st0{fill-rule:evenodd;clip-rule:evenodd;fill:#DCB91C;}
 </style>
 <g id="Symbols">
  <g id="Elements_x2F_Logos_x2F_BPI-Gold">
   <g id="BPI_logo">
    <path id="Shape_00000134243152485556792380000008424523018701446275_" class="st0" d="M1,115.2c0.8,2.3,2.6,4.4,5.5,6.5
				c3.9,3.1,34.1,23.2,43.5,29.2l2.1,1.3l1.6-1c1.6-1,38.3-26.1,42.7-29.4c2.9-2.1,4.4-4.2,5.5-6.5c1.3-3.6,0.8-6.5,0.5-8.6l0,0
				c-0.3-1-6.3-37.3-9.4-54.5C79.5,50,65.9,49,52.1,49c-0.3,0-0.5,0-0.8,0v93.8c-18.5-12-36.2-23.7-39.3-26.1
				c-1.8-1.3-2.9-2.6-3.4-3.9c-0.8-1.8-0.5-3.4-0.3-5.2c0.3-1,6.8-39.9,9.9-56.3c-2.9,0.3-5,0.8-7.8,1.3
				c-3.1,17.2-9.6,52.9-9.9,53.9C0,108.6-0.5,111.5,1,115.2L1,115.2z M25,65.9h3.4v1.8v1h2.9v-2.9h3.4v2.9h2.6v-2.9h3.4v7.3H25V65.9
				L25,65.9z M27.4,74.3h10.4l3.6,28.9H24L27.4,74.3z M21.9,104.7h21.6v7.3h-5.7v-1.8h-9.9v1.8h-6V104.7z M30.2,90.1h5v-1.8h-5V90.1
				z M35.2,82.6h-5v1.8h5V82.6z M30.2,95.9h5v-1.8h-5V95.9z M27.1,37.3c-2.1,0.3-3.4,0.5-5.2,1c-0.3,1.6-0.8,4.7-1.3,7.3
				c10.2-1.6,20.8-2.3,31.3-2.3c9.9,0,19.8,0.8,29.4,2.1c-0.5-2.3-1-5.5-1.3-7c-1.3-0.5-2.9-0.8-5.2-1c6.8-1.6,10.9-6.3,10.9-10.9
				c0-6-4.7-10.9-16.7-12c-4.2-3.4-9.9-4.7-15.1-5.2C55.2,8.3,56,6.8,56,5c0-2.6-2.6-5-5.2-5c-2.6,0-5.2,2.1-5.2,5
				c0,1.6,0.8,3.1,2.1,4.2c-5,0.5-10.9,1.8-15.1,5.2c-11.7,1-16.4,6-16.4,12C16.2,31,20.3,35.7,27.1,37.3L27.1,37.3z M71.7,18
				c0,0,8.9,0.8,8.9,8.6c0,6.3-6.8,9.6-15.1,8.3C76.9,30.5,74.5,21.4,71.7,18L71.7,18z M53.7,13.5C61.2,14.3,67,19,67,24.8
				S61,35.4,53.4,36C55,33.9,56,29.7,56,24.5C55.8,19.8,55,15.6,53.7,13.5L53.7,13.5z M48.2,13.5c-1.3,2.3-2.3,6.3-2.3,10.9
				c0,5,1,9.4,2.6,11.5c-7.6-0.5-13.5-5.2-13.5-11.2S40.6,14.1,48.2,13.5L48.2,13.5z M30.2,18c-2.9,3.4-5.2,12.2,6.5,16.9
				c-8.3,1-15.1-2.3-15.1-8.3C21.1,19,30.2,18,30.2,18L30.2,18z M74.5,118c0-0.3,0.3-0.8,0.3-1c0.5,0,1-0.3,1.8-0.3
				c1-0.8,1-2.9,2.1-3.6c0.5-0.3,0.8,0,1,0.5c0.3-0.8,0.3-1.8,0.5-2.9c0.8-2.1,2.9-3.4,2.1-7.3c0,0,0,0-0.3-0.3
				c-0.3,0.5-0.5,0.8-0.8,1.3c-2.9-0.3-1.8-6.5,0.3-7c1.3,3.9,7.3,5,7.8-0.3c0-1-0.8-2.3-1.8-3.9c0.5-1.6,1-2.9,1.6-3.6
				c0.3-0.5-1.6,0.3-2.6,2.1c0.5-1.6,1-3.1,1.8-3.9c0.3-0.5-1.3,0.3-2.3,1.8c0.5-1.6,1-3.1,1.8-3.9c0.3-0.5-1.8,0.5-2.6,2.3
				c-0.3-1-0.5-2.1-0.5-2.9c0-2.3,0.8-7,1.8-10.9c0.3-1,0.8-3.1,2.3-3.9c-1.3-0.3-3.4,0.8-3.4,3.1c-0.3-3.4-2.9-4.7-4.2-5
				c4.2,3.9,0.8,12.5,0.8,16.4c0,5.2,6.3,10.4,5.2,12.2c-1.3,2.6-3.9-2.3-4.7-4.2c-0.8-1.6-3.6-4.2-5.7-6.3c1.3-0.8,2.6-3.1,2.6-5.2
				c0.3,0.3,0.5,0.5,0.5,0.8h0.3c-0.3-2.1,0.5-4.4-0.3-6.3c0.3,0,0.8,0,1,0c-0.3-9.4-7-7.6-10.4-6.8c0,0.3-0.3,0.3-0.3,0.5
				c0.5,0,0.8,0,1.3,0l0,0c-0.3,0-0.8,0.3-1,0.3c-0.3,0.5,0,2.1,0.8,2.9c0.3-0.8,0.3-1,1-1.3c0.8,0.5,1.3,1.8,0.8,3.1
				c-0.5,0.3-1,0-1.3-0.5l0,0c-0.3,1.3-0.3,2.9,0.8,3.6c0-1.3,0.5-1.8,1.6-1.6c-0.3,2.9-2.3,2.1-4.2,2.9c-3.6,1.3-4.4,6.8-7.8,7.6
				c0.3,1.3,1.6,2.3,2.3,2.9c-0.5,0.8-2.3,3.6-3.4,3.6c-0.3-0.5-0.5-1-1.3-1c-0.5,0.3-1,0.3-1.6,0.5c0,0.3-0.3,0.5-0.3,0.5
				c0.3,0,0.5,0,0.8,0.3c0,0.3,0,0.8,0,1c0.5,0,1,0,1.6,0.3v0.3c-0.5,0-1-0.3-1.6-0.3c-0.3,0.3-1,1.6-1,2.3v0.3
				c0.3-0.3,0.3-0.3,0.5-0.5c0.3,0,0.3,0.3,0.5,0.5c0,0,0.3,0,0.3,0.3c0.5-0.5,0.8-0.8,1.3-1.3l0,0c0,0,0,0.3,0.3,0.3
				c-0.3,0.5-0.8,0.8-1,1.3c0,0.8-0.3,1.6,0,2.3c0.3-0.3,0.5-0.5,0.8-0.8c1,1,1.6-0.3,2.3-1.3c0.3,0.3,0.8,0.3,1.3,0.5
				c0,0.3,0,0.5,0,0.8l0,0c1.6-1.6-0.5-3.1,1.6-5c1,0.5,1.6,0.5,2.6,0c0.3-0.3,0.3-0.5,0.5-0.8c-0.5-0.3-0.8-0.5-1-1
				c0-0.3,0-0.5,0.3-0.5c0.5-0.8,1.8-0.8,2.6-0.5c2.1,0.8,3.4,2.9,5,4.4c-0.3,2.1-0.3,4.4,0,6.3c0.5,1.8,1.8,2.6,1.3,5
				c0.8,0,1.3-0.5,1.6-1c0.3,0,0.5,0,1,0c-0.8,1.6-2.3,4.4-3.9,5c-1.6,0.5-2.1-1.3-3.4-1c-0.3,0.3-0.5,0.5-0.5,0.5
				c-0.5,0.3-0.8,0-1.3,0.8v0.3c0.3,0,0.5,0,0.8,0c0,0.3,0.3,0.5,0.3,1c0.3-0.5,0.8-0.8,1-1.3c0,0,0,0,0,0.3c-0.5,0.5-1,1.3-1.3,2.1
				c0,0.5,0,1,0,1.6c0,0,0,0,0.3,0l0.5-0.8h0.3c0,0.3,0.3,0.3,0.3,0.5h0.3c0.3-0.8,0.3-1.3,0.5-2.1c0,0,0.3,0,0.3-0.3l0,0
				c-0.3,1-0.5,2.3-0.3,3.6l0.3,0.3c0-0.3,0.3-0.5,0.3-0.5c-0.8,0.5-0.8,0.3-0.3,0.5c0-1-0.3-1.8,0.5-2.3c-0.5,0.8-0.3,2.3,0,3.4
				C74,117.8,74.3,118,74.5,118L74.5,118z M73.2,71.4v-1c0.8,0,1.8,0,2.3,0.3C74.8,70.6,74,70.9,73.2,71.4L73.2,71.4z M74.8,106.3
				L74.8,106.3c-0.8-0.8-3.6-4.2-2.9-6.3c0.3-1,1.3-0.8,2.1-0.3c0-0.5,0-1.3,0.3-1.8c-0.5-0.8-1.8-1.3-1.3-2.6
				c-3.6-2.9-3.4,2.1-6.3,1.8c0,1,0.8,1.8,1.6,2.1c0,2.3,0.8,3.9,1.8,4.7v0.3c-1.3,0.3-3.1,0.3-3.9-0.5c-1.3-1-1.6-2.3-3.4-2.3l0,0
				c0,0.3,0.3,0.3,0.3,0.5c0,0.3,0,0.5-0.3,0.8l0,0c0.3,0,0.8,0.3,1,0.3c0,0,0,0,0.3,0v0.8c-1-0.3-2.3-0.3-2.6,1l0,0
				c0.3,0,0.5,0,0.8,0c0.3,0.3,0.3,0.5,0.5,1.3c0.5-0.5,0.8-1,1.3-1.3l0,0c-0.3,1.3-1.3,1.6-1.3,3.1l0,0c0.3,0,0.5-0.3,0.8-0.5
				c0.3,0.3,0.5,0.5,0.8,0.8c0.3-0.3,0.5-1,0.5-1.6h0.3c-0.3,1-0.8,2.1-0.3,3.1c0,0.3,0.3,0.3,0.3,0.5c0-0.3,0.3-0.5,0.3-0.8
				c0.5-0.3,0.8,0.3,1.3,0c0.8-0.3,0.8-1.6,2.1-1.6c0.3,0.3,0.5,0.5,0.5,1.3c0.8-0.3,1-1,1.6-1.3C72.7,107.1,73.2,108.1,74.8,106.3
				L74.8,106.3z M69,76.1c1.6-0.3,2.1-1.8,3.6-1.8l0,0c-0.3,0-0.8-0.3-1,0c-0.8,0.3-4.2,2.1-2.9-0.8C67.5,73.5,67,76.3,69,76.1
				L69,76.1z M58.4,83.6L58.4,83.6c0.3,0.5,1.3,0.5,1.8,0.5c0.3-0.3,0.5-0.8,0.8-1c0,0,0,0,0.3,0c0.8,1,1.6,2.1,2.3,2.9
				c0,0,0,0,0.3,0c0.8-0.8,1.3-1.8,1.8-2.6c-0.3-1.6-1.8-2.1-2.3-3.4c-0.5-1.6,1-3.6-1-5c0,0.8-0.3,1-0.5,1.6c0,0.5,0,1,0.3,1.3v0.3
				l0,0c-0.3-0.3-0.3-0.8-0.5-1.3c-0.3-0.5-1.3-1.3-2.1-1.3l0,0c0.3,0.5,0,1,0.3,1.6c0.3,0.5,0.5,1,0.8,1.6v0.3h-0.3
				c-0.3-0.3-0.5-0.8-1-1c-0.5-0.3-1.3,0-1.8,0.3c0.3,0.3,0.5,0.5,0.5,0.8C58.4,79.2,60.4,81.8,58.4,83.6L58.4,83.6z M71.9,64.1
				c0.8-0.5,1.6-0.8,2.3-0.8C74,63.1,74,63.1,74,62.8c0-0.5,0.5-0.8,0.8-0.8c0.5,0,0.8,0.3,0.8,0.8c0,0.3,0,0.5-0.3,0.5
				c0.8,0,1.6,0.3,2.3,0.8c1.8,0.3,2.6,1,2.6,1.8c0,0.8-0.8,1.6-2.1,1.8c0,0.3,0,0.5,0,0.8c-0.8-0.3-2.1-0.3-3.4-0.3
				c-1,0-2.6,0.3-3.4,0.3c0-0.3,0-0.5,0-0.8c-1.3-0.3-2.1-1-2.1-1.8C69.3,65.1,70.1,64.4,71.9,64.1L71.9,64.1z M79.2,66.2
				c0-1-1.3-1.3-1.3-1.3c0.5,0.5,0.8,1.6-1,2.3C78.4,67.5,79.2,67,79.2,66.2L79.2,66.2z M77.1,65.9c0-0.8-1-1.6-2.1-1.6
				c0.3,0.3,0.3,0.8,0.3,1.6c0,0.8-0.3,1.3-0.5,1.6C76.3,67.2,77.1,66.7,77.1,65.9L77.1,65.9z M74.3,67.5c-0.3-0.3-0.5-0.8-0.5-1.6
				c0-0.5,0.3-1.3,0.3-1.6c-1.3,0-2.1,0.8-2.1,1.6C72.2,66.7,73.2,67.2,74.3,67.5L74.3,67.5z M72.4,67.2c-1.8-0.8-1.3-1.8-1-2.3
				c0,0-1.3,0-1.3,1.3C70.1,67,71.1,67.5,72.4,67.2L72.4,67.2z">
    </path>
   </g>
  </g>
 </g>
</svg>