<svg width="147" height="42" viewBox="0 0 147 42" fill="none" xmlns="http://www.w3.org/2000/svg">
<g clip-path="url(#clip0_1307_15196)">
<path d="M32.4509 0C29.0563 0 25.6029 1.41908 23.3998 3.66813L24.65 6.15245L24.1215 6.57215C21.7858 2.57089 17.4914 0 12.9204 0C5.77684 0 0.00102172 6.21079 0.00102172 13.4868V29.1625C-0.00516045 29.2962 0.0167642 29.4297 0.0653878 29.5545C0.114011 29.6793 0.18827 29.7927 0.283437 29.8874C0.378604 29.9822 0.492584 30.0562 0.618124 30.1047C0.743665 30.1532 0.878017 30.1753 1.0126 30.1694H6.19359C6.44479 30.1694 6.68571 30.0702 6.86333 29.8938C7.04096 29.7173 7.14075 29.4779 7.14075 29.2284V13.3683C7.14075 9.76035 9.34386 6.80364 13.0946 6.80364C16.6067 6.80364 19.1072 9.40464 19.1072 13.2497V26.2641C19.0984 26.393 19.1163 26.5223 19.16 26.6439C19.2036 26.7656 19.272 26.877 19.3608 26.9713C19.4497 27.0656 19.5571 27.1407 19.6764 27.1919C19.7958 27.2431 19.9244 27.2694 20.0544 27.2691H25.0062C25.1362 27.2694 25.2648 27.2431 25.3842 27.1919C25.5035 27.1407 25.6109 27.0656 25.6998 26.9713C25.7886 26.877 25.857 26.7656 25.9006 26.6439C25.9442 26.5223 25.9622 26.393 25.9533 26.2641V13.2497C25.9533 9.40464 28.5732 6.80364 32.0853 6.80364C35.8361 6.80364 37.9198 9.76035 37.9198 13.3683V29.2227C37.9316 29.4796 38.044 29.7218 38.233 29.8976C38.422 30.0734 38.6726 30.1689 38.9314 30.1637H44.0461C44.1808 30.1699 44.3154 30.1481 44.4412 30.0996C44.5669 30.0512 44.6811 29.9773 44.7765 29.8825C44.8719 29.7878 44.9463 29.6743 44.9951 29.5493C45.0438 29.4244 45.0658 29.2907 45.0596 29.1568V13.4868C45.0596 6.21079 39.5224 0 32.4376 0" fill="#50B16B"/>
<path d="M63.1188 24.1333C58.0041 24.1333 54.4276 20.5236 54.4276 15.4363C54.4276 10.2908 57.9984 6.62268 63.1188 6.62268C68.2998 6.62268 71.9918 10.2908 71.9918 15.4363C71.9918 20.5179 68.2998 24.1333 63.1188 24.1333ZM78.7792 0.588802H74.068C73.9382 0.579749 73.8079 0.597383 73.6852 0.640604C73.5625 0.683824 73.4501 0.751702 73.355 0.840004C73.2599 0.928305 73.1841 1.03513 73.1325 1.15382C73.0808 1.27251 73.0543 1.40051 73.0546 1.52983V2.18102L74.7216 4.78391L74.2726 5.23183C71.5221 2.12832 67.5913 -0.0078125 63.1112 -0.0078125C54.6568 -0.0078125 47.6914 6.85417 47.6914 15.4251C47.7019 19.4851 49.3298 23.3759 52.2192 26.247C55.1087 29.1181 59.0247 30.736 63.1112 30.7469C67.6254 30.7469 71.5846 28.6258 74.3351 25.5223L74.714 25.8366L73.0621 28.5656V29.1566C73.0609 29.2891 73.0862 29.4206 73.1367 29.5434C73.1872 29.6661 73.2618 29.7776 73.3562 29.8713C73.4505 29.9651 73.5627 30.0392 73.6863 30.0894C73.8098 30.1395 73.9422 30.1647 74.0756 30.1634H78.7792C78.9138 30.1693 79.0482 30.1473 79.1737 30.0988C79.2992 30.0502 79.4132 29.9762 79.5084 29.8815C79.6036 29.7868 79.6778 29.6734 79.7264 29.5486C79.7751 29.4238 79.797 29.2903 79.7908 29.1566V1.53548C79.7908 0.944511 79.374 0.594448 78.7792 0.594448" fill="#50B16B"/>
<path d="M130.33 24.1333C125.215 24.1333 121.639 20.5236 121.639 15.4363C121.639 10.2908 125.21 6.62268 130.33 6.62268C135.511 6.62268 139.203 10.2908 139.203 15.4363C139.203 20.5179 135.511 24.1333 130.33 24.1333ZM145.991 0.588802H141.287C141.157 0.579749 141.027 0.597383 140.904 0.640604C140.781 0.683824 140.669 0.751702 140.574 0.840004C140.479 0.928305 140.403 1.03513 140.351 1.15382C140.3 1.27251 140.273 1.40051 140.273 1.52983V2.18102L141.94 4.78391L141.491 5.23183C138.741 2.12832 134.81 -0.0078125 130.33 -0.0078125C121.876 -0.0078125 114.91 6.85417 114.91 15.4251C114.921 19.4851 116.549 23.3759 119.438 26.247C122.327 29.1181 126.243 30.736 130.33 30.7469C134.844 30.7469 138.803 28.6258 141.554 25.5223L141.933 25.8366L140.266 28.5581V29.149C140.265 29.2816 140.29 29.4131 140.34 29.5358C140.391 29.6586 140.465 29.7701 140.56 29.8638C140.654 29.9576 140.766 30.0317 140.89 30.0818C141.013 30.132 141.146 30.1572 141.279 30.1559H145.983C146.118 30.1618 146.252 30.1398 146.377 30.0912C146.503 30.0427 146.617 29.9687 146.712 29.874C146.807 29.7793 146.882 29.6659 146.93 29.5411C146.979 29.4162 147.001 29.2827 146.994 29.149V1.53548C146.994 0.944511 146.578 0.594448 145.983 0.594448" fill="#50B16B"/>
<path d="M110.996 0.59375H106.175C105.4 0.59375 104.983 1.0078 104.983 1.42185V15.8554C104.983 20.3516 102.006 23.4871 97.4213 23.4871C93.1951 23.4871 90.4559 20.3516 90.4559 15.8554V1.42185C90.4559 1.0078 89.8004 0.59375 89.3837 0.59375H84.2046C83.9884 0.608282 83.7848 0.700195 83.6315 0.852458C83.4782 1.00472 83.3857 1.20701 83.3711 1.42185V15.797C83.3711 23.4871 89.4443 30.1722 97.4213 30.1722C101.028 30.1719 104.512 28.8666 107.221 26.5003L107.488 26.7412L105.343 29.6395V30.7688C105.343 33.7255 100.878 35.3817 98.2586 35.3817H96.5916C95.9968 35.3817 95.5194 35.7958 95.5194 36.3227V41.0561C95.5194 41.5285 95.9968 41.9971 96.5916 41.9971H98.2586C106.238 41.9971 112.072 37.3823 112.072 28.6872V1.42185C112.072 1.0078 111.655 0.59375 111 0.59375" fill="#50B16B"/>
</g>
<defs>
<clipPath id="clip0_1307_15196">
<rect width="147" height="42" fill="white"/>
</clipPath>
</defs>
</svg>
